<?xml version="1.0" encoding="UTF-8"?>
<svg xmlns="http://www.w3.org/2000/svg" viewBox="0 0 4133 943" width="4133" height="943">
  <path fill="currentColor" fill-rule="evenodd" d="M 1526,619 L 1373,851 L 1368,862 L 1367,871 L 1376,883 L 1387,887 L 1570,885 L 1581,875 L 1633,794 L 1636,784 L 1631,774 Z M 2799,293 L 2792,302 L 2791,662 L 2793,727 L 2798,762 L 2805,785 L 2819,814 L 2838,840 L 2852,854 L 2874,870 L 2893,880 L 2915,888 L 2958,896 L 2994,896 L 3018,893 L 3065,879 L 3102,858 L 3135,825 L 3154,789 L 3156,791 L 3156,865 L 3161,877 L 3172,885 L 3185,887 L 3332,887 L 3345,882 L 3351,875 L 3354,865 L 3352,304 L 3350,299 L 3343,293 L 3334,290 L 3159,290 L 3152,293 L 3146,299 L 3142,308 L 3143,616 L 3139,669 L 3130,692 L 3113,711 L 3103,717 L 3085,723 L 3058,724 L 3039,719 L 3020,707 L 3008,691 L 3001,669 L 2998,626 L 2997,300 L 2992,294 L 2979,290 L 2806,290 Z M 1951,293 L 1941,290 L 1761,291 L 1750,300 L 1695,383 L 1694,387 L 1806,557 L 1831,524 L 1957,327 L 1963,315 L 1963,307 L 1960,301 Z M 1377,293 L 1367,305 L 1367,312 L 1375,327 L 1742,875 L 1752,884 L 1767,887 L 1932,887 L 1953,884 L 1961,875 L 1962,863 L 1943,829 L 1586,297 L 1577,290 L 1387,290 Z M 2748,292 L 2726,289 L 2686,293 L 2661,300 L 2635,313 L 2616,327 L 2600,343 L 2583,368 L 2562,409 L 2562,306 L 2558,297 L 2552,292 L 2540,290 L 2377,290 L 2368,293 L 2361,300 L 2361,873 L 2372,884 L 2387,887 L 2544,887 L 2559,883 L 2567,874 L 2570,864 L 2569,604 L 2570,579 L 2574,559 L 2588,533 L 2606,516 L 2624,506 L 2654,499 L 2735,499 L 2748,496 L 2756,488 L 2758,483 L 2758,304 L 2755,298 Z M 1322,290 L 1301,289 L 1265,296 L 1235,307 L 1195,330 L 1175,348 L 1158,369 L 1143,395 L 1136,415 L 1132,446 L 1133,870 L 1135,877 L 1141,883 L 1148,886 L 1314,887 L 1324,885 L 1333,880 L 1340,869 L 1339,308 L 1334,298 Z M 3658,282 L 3593,291 L 3544,308 L 3514,324 L 3490,341 L 3450,380 L 3422,422 L 3408,453 L 3399,480 L 3393,506 L 3388,545 L 3386,582 L 3387,627 L 3394,683 L 3400,707 L 3412,740 L 3427,769 L 3443,793 L 3475,828 L 3498,847 L 3520,861 L 3550,876 L 3573,884 L 3631,896 L 3688,898 L 3736,892 L 3765,885 L 3798,874 L 3835,857 L 3871,834 L 3903,808 L 3917,792 L 3920,781 L 3916,773 L 3835,679 L 3796,709 L 3766,728 L 3742,740 L 3719,747 L 3689,751 L 3662,749 L 3631,740 L 3607,725 L 3588,704 L 3577,683 L 3569,656 L 3566,626 L 3565,568 L 3568,517 L 3576,487 L 3592,460 L 3614,441 L 3640,430 L 3664,426 L 3680,426 L 3702,430 L 3729,443 L 3748,463 L 3760,487 L 3767,518 L 3767,526 L 3620,526 L 3612,530 L 3605,543 L 3604,626 L 3610,634 L 3615,636 L 3927,635 L 3938,627 L 3942,619 L 3943,560 L 3937,501 L 3921,447 L 3906,416 L 3892,394 L 3859,356 L 3819,325 L 3772,301 L 3722,287 L 3693,283 Z M 1075,376 L 1058,351 L 1032,324 L 1001,303 L 975,291 L 955,285 L 921,280 L 894,280 L 846,289 L 825,297 L 797,312 L 776,328 L 757,348 L 741,371 L 732,391 L 724,372 L 703,342 L 684,323 L 660,306 L 633,293 L 609,286 L 579,282 L 558,282 L 528,286 L 498,294 L 476,304 L 452,319 L 423,346 L 404,374 L 395,394 L 394,309 L 392,299 L 383,291 L 374,289 L 208,290 L 201,293 L 192,303 L 190,312 L 191,871 L 200,882 L 216,887 L 377,887 L 389,883 L 399,873 L 402,859 L 400,606 L 402,521 L 408,499 L 424,476 L 447,463 L 475,459 L 500,464 L 516,474 L 531,493 L 538,514 L 540,534 L 541,870 L 544,878 L 551,884 L 561,887 L 729,887 L 740,883 L 747,876 L 750,868 L 750,553 L 753,511 L 764,485 L 782,468 L 805,459 L 834,458 L 860,467 L 874,479 L 884,496 L 889,516 L 890,852 L 892,875 L 899,882 L 915,887 L 1077,887 L 1089,884 L 1096,878 L 1099,871 L 1099,479 L 1094,424 L 1087,401 Z M 1989,107 L 1982,112 L 1977,122 L 1977,242 L 1980,255 L 1987,263 L 1992,265 L 2036,266 L 2049,270 L 2056,277 L 2056,285 L 2052,293 L 2014,336 L 1977,383 L 1977,703 L 1982,744 L 1993,778 L 2015,817 L 2042,847 L 2077,871 L 2108,884 L 2162,895 L 2215,896 L 2251,892 L 2319,879 L 2327,870 L 2326,731 L 2314,723 L 2257,725 L 2228,720 L 2211,711 L 2202,702 L 2193,686 L 2188,652 L 2187,493 L 2188,441 L 2292,442 L 2316,439 L 2325,432 L 2327,428 L 2326,302 L 2321,295 L 2313,291 L 2197,291 L 2188,289 L 2187,118 L 2179,108 L 2173,106 Z M 1215,45 L 1196,49 L 1177,57 L 1158,70 L 1144,84 L 1132,103 L 1124,124 L 1121,141 L 1121,167 L 1125,186 L 1134,208 L 1148,228 L 1163,242 L 1187,256 L 1202,261 L 1218,264 L 1242,264 L 1267,258 L 1286,249 L 1302,238 L 1320,220 L 1333,200 L 1341,180 L 1344,165 L 1344,144 L 1340,124 L 1331,103 L 1315,81 L 1299,66 L 1287,58 L 1266,49 L 1246,45 Z"/>
</svg>